<svg width="768" height="221" viewBox="0 0 768 221" fill="none" xmlns="http://www.w3.org/2000/svg">
  <defs>
    <linearGradient id="nexaGrad" x1="0" y1="0" x2="185" y2="185" gradientUnits="userSpaceOnUse">
      <stop stop-color="#7C5CFF"/>
      <stop offset="1" stop-color="#5B8CFF"/>
    </linearGradient>
  </defs>
  <!-- Nexa Chat icon mark -->
  <g transform="translate(24, 18)">
    <rect width="185" height="185" rx="44" fill="url(#nexaGrad)"/>
    <path d="M52 138V58C52 53.5817 55.5817 50 60 50H67.5C70.3514 50 73.0144 51.5215 74.5275 54.0918L117.5 127V58C117.5 53.5817 121.082 50 125.5 50C129.918 50 133.5 53.5817 133.5 58V138C133.5 142.418 129.918 146 125.5 146H118C115.149 146 112.486 144.479 110.972 141.908L68 69V138C68 142.418 64.4183 146 60 146C55.5817 146 52 142.418 52 138Z" fill="#ffffff"/>
    <circle cx="92.5" cy="158" r="6.5" fill="#ffffff" fill-opacity="0.75"/>
  </g>
  <!-- Nexa Chat wordmark -->
  <g fill="#1A1A2E">
    <text x="248" y="130" font-family="'Segoe UI', 'Helvetica Neue', Helvetica, Arial, sans-serif" font-size="96" font-weight="700" letter-spacing="-2">Nexa</text>
    <text x="500" y="130" font-family="'Segoe UI', 'Helvetica Neue', Helvetica, Arial, sans-serif" font-size="96" font-weight="400" fill="#6B7280" letter-spacing="-2">Chat</text>
  </g>
</svg>
